<svg xmlns="http://www.w3.org/2000/svg" viewBox="0 0 167 64" fill="none">
    <path
            fill="#F5F5F7"
            fill-rule="evenodd"
            d="M109.484 3.13a3.13 3.13 0 1 1-6.26 0 3.13 3.13 0 0 1 6.26 0Z"
            clip-rule="evenodd"
    />
    <path
            fill="#0062F9"
            fill-rule="evenodd"
            d="M110.404 3.13a3.13 3.13 0 1 0 6.26-.001 3.13 3.13 0 0 0-6.26 0ZM103.231 10.344a3.13 3.13 0 1 0 6.26-.001 3.13 3.13 0 0 0-6.26.001ZM117.594 3.13a3.13 3.13 0 1 0 6.26-.001 3.13 3.13 0 0 0-6.26 0ZM124.768 3.13a3.13 3.13 0 1 0 6.259 0 3.13 3.13 0 0 0-6.259 0ZM146.311 3.13a3.13 3.13 0 1 0 6.259 0 3.13 3.13 0 0 0-6.259 0ZM153.482 3.13a3.13 3.13 0 1 0 6.259 0 3.13 3.13 0 0 0-6.259 0ZM110.404 10.344a3.13 3.13 0 1 0 6.26-.001 3.13 3.13 0 0 0-6.26.001ZM117.594 10.344a3.13 3.13 0 1 0 6.26-.001 3.13 3.13 0 0 0-6.26.001ZM124.768 10.344a3.13 3.13 0 1 0 6.259 0 3.13 3.13 0 0 0-6.259 0ZM131.94 10.344a3.13 3.13 0 1 0 6.26-.001 3.13 3.13 0 0 0-6.26.001ZM153.482 10.344a3.13 3.13 0 1 0 6.259 0 3.13 3.13 0 0 0-6.259 0ZM160.662 10.344a3.13 3.13 0 1 0 6.259 0 3.13 3.13 0 0 0-6.259 0ZM103.231 17.558a3.13 3.13 0 1 0 6.261 0 3.13 3.13 0 0 0-6.261 0ZM110.404 17.558a3.13 3.13 0 1 0 6.261 0 3.13 3.13 0 0 0-6.261 0ZM124.768 17.558a3.13 3.13 0 1 0 6.26.001 3.13 3.13 0 0 0-6.26-.001ZM131.94 17.558a3.13 3.13 0 1 0 6.262 0 3.13 3.13 0 0 0-6.262 0ZM153.482 17.558a3.13 3.13 0 1 0 6.26.001 3.13 3.13 0 0 0-6.26-.001ZM160.662 17.558a3.13 3.13 0 1 0 6.26.001 3.13 3.13 0 0 0-6.26-.001ZM103.231 24.785a3.13 3.13 0 1 0 6.261 0 3.13 3.13 0 0 0-6.261 0ZM110.404 24.785a3.13 3.13 0 1 0 6.261 0 3.13 3.13 0 0 0-6.261 0ZM124.768 24.785a3.13 3.13 0 1 0 6.26 0 3.13 3.13 0 0 0-6.26 0ZM131.94 24.785a3.13 3.13 0 1 0 6.262-.001 3.13 3.13 0 0 0-6.262.001ZM153.482 24.785a3.13 3.13 0 1 0 6.26 0 3.13 3.13 0 0 0-6.26 0ZM160.662 24.785a3.13 3.13 0 1 0 6.26 0 3.13 3.13 0 0 0-6.26 0ZM103.231 32a3.13 3.13 0 1 0 6.26 0 3.13 3.13 0 0 0-6.26 0ZM110.404 32a3.13 3.13 0 1 0 6.26 0 3.13 3.13 0 0 0-6.26 0ZM124.768 32a3.13 3.13 0 1 0 6.259 0 3.13 3.13 0 0 0-6.259 0ZM131.94 32A3.13 3.13 0 1 0 138.2 32a3.13 3.13 0 0 0-6.26.001ZM153.482 32a3.13 3.13 0 1 0 6.259 0 3.13 3.13 0 0 0-6.259 0ZM160.662 32a3.13 3.13 0 1 0 6.259 0 3.13 3.13 0 0 0-6.259 0ZM103.231 39.215a3.13 3.13 0 1 0 6.26-.001 3.13 3.13 0 0 0-6.26 0ZM110.404 39.215a3.13 3.13 0 1 0 6.26-.001 3.13 3.13 0 0 0-6.26 0ZM124.768 39.215a3.13 3.13 0 1 0 6.259 0 3.13 3.13 0 0 0-6.259 0ZM131.94 39.215a3.13 3.13 0 1 0 6.26-.002 3.13 3.13 0 0 0-6.26.002ZM153.482 39.215a3.13 3.13 0 1 0 6.259 0 3.13 3.13 0 0 0-6.259 0ZM160.662 39.215a3.13 3.13 0 1 0 6.259 0 3.13 3.13 0 0 0-6.259 0ZM103.231 46.435a3.13 3.13 0 1 0 6.261 0 3.13 3.13 0 0 0-6.261 0ZM110.404 46.435a3.13 3.13 0 1 0 6.261 0 3.13 3.13 0 0 0-6.261 0ZM124.768 46.435a3.13 3.13 0 1 0 6.26 0 3.13 3.13 0 0 0-6.26 0ZM131.94 46.435a3.13 3.13 0 1 0 6.262-.001 3.13 3.13 0 0 0-6.262.001ZM153.482 46.435a3.13 3.13 0 1 0 6.26 0 3.13 3.13 0 0 0-6.26 0ZM160.662 46.435a3.13 3.13 0 1 0 6.26 0 3.13 3.13 0 0 0-6.26 0ZM103.231 53.656a3.13 3.13 0 1 0 6.261-.001 3.13 3.13 0 0 0-6.261.001ZM110.404 53.656a3.13 3.13 0 1 0 6.261-.001 3.13 3.13 0 0 0-6.261.001ZM117.594 53.656a3.13 3.13 0 1 0 6.261-.001 3.13 3.13 0 0 0-6.261.001ZM124.768 53.656a3.13 3.13 0 1 0 6.26 0 3.13 3.13 0 0 0-6.26 0ZM131.94 53.656a3.13 3.13 0 1 0 6.262-.001 3.13 3.13 0 0 0-6.262.001ZM153.482 53.656a3.13 3.13 0 1 0 6.26 0 3.13 3.13 0 0 0-6.26 0ZM160.662 53.656a3.13 3.13 0 1 0 6.26 0 3.13 3.13 0 0 0-6.26 0ZM110.404 60.87a3.13 3.13 0 1 0 6.26 0 3.13 3.13 0 0 0-6.26 0ZM117.594 60.87a3.13 3.13 0 1 0 6.26 0 3.13 3.13 0 0 0-6.26 0ZM124.768 60.87a3.13 3.13 0 1 0 6.26.001 3.13 3.13 0 0 0-6.26 0ZM131.94 60.87a3.13 3.13 0 1 0 6.26 0 3.13 3.13 0 0 0-6.26 0ZM160.662 60.87a3.13 3.13 0 1 0 6.26.001 3.13 3.13 0 0 0-6.26 0Z"
            clip-rule="evenodd"
    />
    <path
            fill="#F5F5F7"
            d="M0 40.885v-2.673l18.515-22.957.433 1.533H.275v-3.42h22.21v2.673L4.05 38.998l-.472-1.533h19.42v3.42H0ZM36.186 41.12c-2.097 0-3.958-.458-5.582-1.375a10.242 10.242 0 0 1-3.853-3.774c-.943-1.625-1.415-3.46-1.415-5.503 0-2.07.472-3.905 1.415-5.504a9.953 9.953 0 0 1 3.852-3.734c1.625-.918 3.486-1.376 5.583-1.376 2.07 0 3.918.459 5.542 1.376 1.651.89 2.936 2.136 3.853 3.734.943 1.573 1.415 3.407 1.415 5.504 0 2.07-.472 3.905-1.415 5.503-.917 1.599-2.202 2.857-3.853 3.774-1.624.917-3.472 1.376-5.542 1.376Zm0-3.301c1.336 0 2.529-.302 3.577-.904a6.382 6.382 0 0 0 2.516-2.556c.602-1.126.904-2.424.904-3.891 0-1.494-.301-2.778-.904-3.853a6.382 6.382 0 0 0-2.516-2.555c-1.048-.603-2.24-.904-3.577-.904-1.337 0-2.53.301-3.578.904s-1.886 1.455-2.515 2.555c-.63 1.075-.944 2.359-.944 3.853 0 1.467.314 2.765.944 3.891.628 1.101 1.467 1.953 2.515 2.556 1.049.602 2.241.904 3.578.904ZM63.34 19.854c1.703 0 3.197.328 4.481.983 1.31.655 2.333 1.65 3.067 2.987.733 1.337 1.1 3.027 1.1 5.071v11.99h-3.773V29.328c0-2.018-.498-3.538-1.494-4.56-.97-1.022-2.346-1.533-4.128-1.533-1.337 0-2.503.262-3.499.786-.995.524-1.769 1.297-2.319 2.32-.524 1.021-.786 2.292-.786 3.812v10.732h-3.774V20.051h3.617v5.62l-.59-1.493c.681-1.363 1.73-2.424 3.145-3.184 1.415-.76 3.066-1.14 4.953-1.14ZM88.25 41.12c-2.228 0-4.194-.458-5.897-1.375-1.677-.917-2.987-2.175-3.931-3.774-.917-1.598-1.376-3.433-1.376-5.503 0-2.07.446-3.905 1.337-5.504.917-1.598 2.162-2.843 3.734-3.734 1.599-.918 3.394-1.376 5.386-1.376 2.018 0 3.8.445 5.346 1.337 1.546.89 2.752 2.148 3.617 3.773.89 1.599 1.336 3.473 1.336 5.622 0 .157-.013.34-.04.55 0 .21-.012.406-.038.59h-17.73v-2.713h15.764l-1.533.944c.026-1.337-.25-2.53-.826-3.578a6.13 6.13 0 0 0-2.398-2.437c-.996-.603-2.162-.904-3.498-.904-1.31 0-2.477.301-3.499.904-1.022.577-1.821 1.402-2.398 2.477-.576 1.048-.865 2.254-.865 3.616v.63c0 1.388.315 2.633.944 3.734.655 1.074 1.56 1.913 2.712 2.516 1.153.602 2.477.904 3.97.904 1.232 0 2.346-.21 3.342-.63a7.32 7.32 0 0 0 2.673-1.886l2.084 2.437c-.944 1.1-2.123 1.94-3.538 2.516-1.39.577-2.949.865-4.678.865Z"
    />
    <path
            fill="#0062F9"
            d="m48.728 54.748 4.242-9.367h1.325l4.255 9.367h-1.405l-3.787-8.618h.535l-3.787 8.618h-1.378Zm1.807-2.342.36-1.07h5.273l.388 1.07h-6.021ZM62.13 54.828c-.713 0-1.266-.191-1.659-.575-.392-.384-.589-.932-.589-1.646v-6.504h1.285v6.45c0 .384.094.678.28.884.197.205.474.308.83.308.402 0 .737-.112 1.004-.335l.402.923c-.197.17-.433.295-.71.375-.267.08-.548.12-.843.12Zm-3.452-6.115v-1.057H63.2v1.057h-4.523ZM69.023 47.589c.58 0 1.088.111 1.525.334.446.224.794.563 1.044 1.017.25.455.375 1.03.375 1.727v4.081h-1.285v-3.934c0-.687-.17-1.205-.508-1.552-.33-.348-.799-.522-1.405-.522-.455 0-.852.089-1.191.267a1.872 1.872 0 0 0-.79.79c-.178.348-.267.78-.267 1.298v3.653h-1.285v-9.93h1.284v4.751l-.254-.508a2.464 2.464 0 0 1 1.07-1.084c.483-.259 1.044-.388 1.687-.388ZM77.502 54.828c-.758 0-1.427-.156-2.007-.468a3.434 3.434 0 0 1-1.338-1.285c-.312-.544-.468-1.168-.468-1.873 0-.705.151-1.33.455-1.873a3.346 3.346 0 0 1 1.27-1.272 3.617 3.617 0 0 1 1.834-.468c.687 0 1.294.151 1.82.455.526.303.937.731 1.231 1.285.303.544.455 1.182.455 1.913 0 .054-.004.116-.013.187 0 .072-.005.139-.014.201h-6.035v-.923h5.366l-.522.321a2.383 2.383 0 0 0-.28-1.218 2.086 2.086 0 0 0-.817-.83c-.339-.205-.736-.307-1.19-.307a2.3 2.3 0 0 0-1.192.308c-.348.196-.62.477-.816.843a2.513 2.513 0 0 0-.294 1.23v.215c0 .473.106.896.32 1.271.224.366.532.651.924.857.392.205.843.307 1.352.307.419 0 .798-.071 1.137-.214.348-.143.651-.357.91-.642l.71.83c-.322.374-.723.66-1.205.856a4.117 4.117 0 0 1-1.593.294ZM86.325 47.589c.58 0 1.088.111 1.526.334.446.224.794.563 1.043 1.017.25.455.375 1.03.375 1.727v4.081h-1.285v-3.934c0-.687-.17-1.205-.508-1.552-.33-.348-.799-.522-1.405-.522-.455 0-.852.089-1.191.267a1.873 1.873 0 0 0-.79.79c-.178.348-.267.78-.267 1.298v3.653h-1.285v-7.092h1.231v1.913l-.2-.508a2.464 2.464 0 0 1 1.07-1.084c.482-.259 1.044-.388 1.686-.388ZM93.68 54.828c-.588 0-1.15-.08-1.686-.24-.526-.161-.94-.357-1.244-.59l.535-1.016c.303.205.678.379 1.124.522a4.45 4.45 0 0 0 1.365.214c.598 0 1.026-.085 1.285-.255.267-.169.401-.405.401-.709a.624.624 0 0 0-.24-.522 1.646 1.646 0 0 0-.643-.28 9.024 9.024 0 0 0-.87-.161 18.403 18.403 0 0 1-.963-.188 4.3 4.3 0 0 1-.883-.32 1.742 1.742 0 0 1-.643-.576c-.16-.25-.24-.58-.24-.99 0-.429.12-.803.36-1.124.242-.322.58-.567 1.018-.737.446-.178.972-.267 1.579-.267.464 0 .932.058 1.405.174.482.107.874.263 1.177.468l-.548 1.017a3.031 3.031 0 0 0-1.004-.441 4.627 4.627 0 0 0-1.044-.12c-.562 0-.98.093-1.257.28-.277.179-.415.41-.415.696 0 .24.08.428.24.562.17.125.384.223.643.294.267.072.562.134.883.188.321.044.642.107.964.187.32.072.61.174.87.308.267.134.481.321.642.562.17.24.254.562.254.963 0 .429-.125.799-.375 1.111-.25.312-.602.558-1.057.736-.455.17-.999.254-1.632.254Z"
    />
</svg>